<?xml version="1.0" encoding="UTF-8" standalone="no"?>
<svg
   width="96"
   height="96"
   version="1.1"
   viewBox="-16 -16 96 96"
   id="svg8"
   xmlns="http://www.w3.org/2000/svg"
   xmlns:svg="http://www.w3.org/2000/svg">
  <defs
     id="defs12">
    <rect
       x="13.696658"
       y="15.794344"
       width="70.70437"
       height="62.560411"
       id="rect361" />
    <rect
       x="47.25964"
       y="78.601542"
       width="1.3573265"
       height="62.807198"
       id="rect349" />
    <rect
       x="13.696658"
       y="15.794344"
       width="70.704369"
       height="62.56041"
       id="rect361-4" />
    <rect
       x="13.696658"
       y="15.794344"
       width="70.704369"
       height="62.56041"
       id="rect361-4-6" />
    <rect
       x="13.696658"
       y="15.794344"
       width="70.704369"
       height="62.56041"
       id="rect361-4-4" />
    <rect
       x="13.696658"
       y="15.794344"
       width="70.704369"
       height="62.56041"
       id="rect361-4-4-3" />
  </defs>
  <path
     d="M 72,32 A 40,40 0 0 1 32,72 40,40 0 0 1 -8,32 40,40 0 0 1 32,-8 40,40 0 0 1 72,32 Z"
     fill="#e0e0e0"
     stroke="#363d3b"
     stroke-linecap="round"
     stroke-linejoin="round"
     stroke-width="8"
     id="path2" />
  <text
     xml:space="preserve"
     transform="translate(-17.056376,-15.053338)"
     id="text347"
     style="font-weight:500;font-size:16px;font-family:SOR1_16px;-inkscape-font-specification:'SOR1_16px, Medium';font-variant-ligatures:discretionary-ligatures;font-variant-numeric:tabular-nums diagonal-fractions;white-space:pre;shape-inside:url(#rect349);fill:none;stroke:#3b253d;stroke-linecap:round;stroke-linejoin:round;stroke-dasharray:1, 6;paint-order:markers stroke fill" />
  <g
     aria-label="D
"
     transform="translate(-40.871287,-0.61631961)"
     id="text359"
     style="font-size:32px;font-family:Overpass;-inkscape-font-specification:'Overpass, Normal';font-variant-ligatures:discretionary-ligatures;font-variant-numeric:tabular-nums diagonal-fractions;white-space:pre;shape-inside:url(#rect361);fill:none;stroke:#3b253d;stroke-width:0.9;stroke-linecap:round;stroke-linejoin:round;stroke-dasharray:0.9, 5.4;paint-order:markers stroke fill" />
  <g
     aria-label="↗
"
     transform="translate(-22.587967,-7.0113739)"
     id="text359-6"
     style="font-size:28px;font-family:Overpass;-inkscape-font-specification:'Overpass, Normal';font-variant-ligatures:discretionary-ligatures;font-variant-numeric:tabular-nums diagonal-fractions;white-space:pre;shape-inside:url(#rect361-4);fill:none;stroke:#3b253d;stroke-width:0.9;stroke-linecap:round;stroke-linejoin:round;stroke-dasharray:0.9, 5.4;paint-order:markers stroke fill" />
  <g
     aria-label="∆
"
     transform="translate(-0.5757097,-18.301987)"
     id="text359-6-3"
     style="font-size:32px;font-family:Overpass;-inkscape-font-specification:'Overpass, Normal';font-variant-ligatures:discretionary-ligatures;font-variant-numeric:tabular-nums diagonal-fractions;white-space:pre;shape-inside:url(#rect361-4-4);fill:none;stroke:#3b253d;stroke-width:0.9;stroke-linecap:round;stroke-linejoin:round;stroke-dasharray:0.9, 5.4;paint-order:markers stroke fill" />
  <g
     aria-label="Д
"
     transform="translate(-1.8714365,12.361376)"
     id="text359-6-3-2"
     style="font-size:28px;font-family:Overpass;-inkscape-font-specification:'Overpass, Normal';font-variant-ligatures:discretionary-ligatures;font-variant-numeric:tabular-nums diagonal-fractions;white-space:pre;shape-inside:url(#rect361-4-4-3);fill:none;stroke:#3b253d;stroke-width:0.9;stroke-linecap:round;stroke-linejoin:round;stroke-dasharray:0.9, 5.4;paint-order:markers stroke fill" />
  <g
     aria-label="↘
"
     transform="translate(-22.663113,9.46151)"
     id="text359-6-6"
     style="font-size:28px;font-family:Overpass;-inkscape-font-specification:'Overpass, Normal';font-variant-ligatures:discretionary-ligatures;font-variant-numeric:tabular-nums diagonal-fractions;white-space:pre;shape-inside:url(#rect361-4-6);fill:none;stroke:#3b253d;stroke-width:0.9;stroke-linecap:round;stroke-linejoin:round;stroke-dasharray:0.9, 5.4;paint-order:markers stroke fill">
    <path
       id="path2640"
       style="text-align:center;text-anchor:middle;fill:#363d3b;stroke:none"
       d="m 55.628839,38.334922 q -0.056,0 -0.14,0 -0.056,-0.028 -0.168,-0.056 -0.112,-0.028 -0.168,-0.028 l -7.28,-1.372 q -0.616,-0.112 -0.616,-0.392 0,-0.224 0.616,-0.532 l 3.052,-1.484 -9.716,-9.24 1.792,-1.82 9.268,9.716 1.456,-3.024 q 0.28,-0.616 0.532,-0.616 0.336,0 0.42,0.672 l 1.372,7.14 q 0,0.112 0.028,0.308 0.056,0.168 0.056,0.224 0,0.504 -0.504,0.504 z m 23.433345,10.512537 h -2.570312 v -4.66211 H 62.109059 v 4.66211 h -2.570312 v -7.013672 h 1.640625 q 1.777344,-2.925782 2.830078,-7.628907 1.066406,-4.716796 1.066406,-10.322265 H 77.13445 v 17.951172 h 1.927734 z m -4.634765,-7.013672 v -15.59961 h -6.808594 q -0.191406,4.88086 -1.203125,8.941407 -1.011719,4.046875 -2.625,6.658203 z m -12.523202,-25.802362 7.936,-22.4 h 2.592 l 7.936,22.4 z m 3.808,-2.656 h 10.88 l -4.704,-13.408 q -0.576,-1.728 -0.736,-2.368 -0.48,1.6 -0.768,2.368 z m -22.636232,8.486613 -1.792,-1.82 9.716,-9.24 -3.052,-1.4839999 q -0.616,-0.308 -0.616,-0.532 0,-0.28 0.616,-0.392 l 7.28,-1.372 q 0.056,0 0.168,-0.028 0.112,-0.028 0.168,-0.028 0.084,-0.028 0.14,-0.028 0.504,0 0.504,0.504 0,0.056 -0.056,0.252 -0.028,0.168 -0.028,0.28 l -1.372,7.1399999 q -0.084,0.672 -0.42,0.672 -0.252,0 -0.532,-0.616 l -1.456,-3.024 z M 23.064667,11.317092 h 6.112 q 2.752,0 4.832,0.96 2.08,0.96 3.264,2.592 1.184,1.632 1.728,3.552 0.576,1.92 0.576,4.096 0,2.08 -0.544,3.968 -0.512,1.856 -1.664,3.552 -1.12,1.664 -3.264,2.688 -2.144,0.992 -5.056,0.992 h -5.984 z m 6.336,19.808 q 1.984,0 3.456,-0.736 1.504,-0.768 2.304,-2.048 0.8,-1.312 1.152,-2.752 0.384,-1.44 0.384,-3.072 0,-2.304 -0.672,-4.192 -0.672,-1.888 -2.304,-3.168 -1.632,-1.28 -3.968,-1.28 h -3.904 v 17.248 z" />
  </g>
</svg>
